<svg clip-rule="evenodd" fill-rule="evenodd" image-rendering="optimizeQuality" shape-rendering="geometricPrecision" text-rendering="geometricPrecision" viewBox="0 0 2.54 2.54" xmlns="http://www.w3.org/2000/svg"><g id="&#x56FE;&#x5C42;_x0020_1"><circle cx="1.27" cy="1.27" fill="#48b02c" r="1.27"/><path d="m.92885 1.22838.34156-.34156.03661.03661c.00141.00156.00287.0031.00437.0046l.43143.43143c.04946.04945.13059.049.1796 0l.00001-.00001c.049-.04901.049-.13059 0-.1796l-.12647-.12647c-.0014-.00155-.00284-.00307-.00433-.00456l-.42836-.42836-.00299-.00311-.00001-.00001c-.01073-.01072-.02301-.01909-.03616-.02512h-.00002l-.00281-.00126h-.00001l-.00049-.00021c-.00173-.00074-.00348-.00143-.00524-.00209v-.00001c-.0452-.01698-.09861-.00758-.13494.02874l-.00001.00001-.00141.00143-.12661.12661c-.00115.00107-.00228.00215-.00339.00326l-.43143.43143c-.049.04901-.04945.13014 0 .1796l.00001.00001c.04946.04945.13014.04945.1796 0l.12822-.12822c.0011-.00103.0022-.00207.00327-.00314zm0 .5627.34156-.34156.03661.03661c.00141.00156.00287.0031.00437.0046l.43143.43143c.04946.04945.13059.049.1796 0l.00001-.00001c.049-.04901.049-.13059 0-.1796l-.12647-.12647c-.0014-.00155-.00284-.00307-.00433-.00456l-.42836-.42836-.00299-.00311-.00001-.00001c-.01072-.01072-.023-.01909-.03616-.02512h-.00002l-.00281-.00126h-.00001l-.00049-.00021c-.00173-.00074-.00348-.00143-.00524-.00209v-.00001c-.0452-.01698-.0986-.00759-.13494.02874l-.00001.00001-.00141.00143-.12661.12661c-.00115.00107-.00228.00215-.00339.00326l-.43143.43143c-.049.04901-.04945.13014 0 .1796l.00001.00001c.04946.04945.13014.04945.1796 0l.12822-.12822c.0011-.00103.0022-.00207.00327-.00314zm.39193-1.20033c-.00174-.00074-.00347-.00143-.00524-.00209" fill="#fff"/></g></svg>